Patient4_TMGait_0pt4_03_right_12_GRF.mot
version=1
nRows=32
nColumns=19
inDegrees=no
endheader
time	F1x	F1y	F1z	M1x	M1y	M1z	F2x	F2y	F2z	M2x	M2y	M2z	EC1x	EC1y	EC1z	EC2x	EC2y	EC2z
14.73	13.6612	777.2726	82.8388	-254.8891	-76.6472	823.4008	-15.2252	-1.1046	1.4454	-1.1511	3.6629	-0.20649	-0.0592	0.0182	-0.0073	-0.0462	0.0165	0.9585
14.7438	9.5166	765.8943	75.7826	-251.8805	-71.2218	805.0032	-10.3165	-0.51354	0.87553	-0.69358	2.6308	0.099909	-0.0592	0.0182	-0.0073	-0.0462	0.0165	0.9585
14.7576	6.7505	754.4943	69.2531	-248.8685	-65.6769	786.4223	-6.2108	-0.036899	0.40794	-0.31142	1.7527	0.35177	-0.0592	0.0182	-0.0073	-0.0462	0.0165	0.9585
14.7714	5.5249	744.2432	63.6565	-246.168	-60.3527	769.2376	-3.1213	0.31842	0.066869	-0.020499	1.0769	0.55615	-0.0592	0.0182	-0.0073	-0.0462	0.0165	0.9585
14.7851	5.6545	736.115	59.2161	-244.0392	-55.5592	754.6691	-1.0128	0.55868	-0.15938	0.18124	0.60669	0.70723	-0.0592	0.0182	-0.0073	-0.0462	0.0165	0.9585
14.7989	6.7735	730.7761	56.0003	-242.654	-51.5328	743.5056	0.26137	0.70941	-0.29876	0.3089	0.32348	0.82075	-0.0592	0.0182	-0.0073	-0.0462	0.0165	0.9585
14.8127	8.4688	728.5466	53.9859	-242.0816	-48.4385	736.1058	0.90142	0.77697	-0.37839	0.37501	0.19119	0.88258	-0.0592	0.0182	-0.0073	-0.0462	0.0165	0.9585
14.8265	10.3671	729.4163	53.0873	-242.296	-46.3566	732.4423	1.0877	0.76011	-0.42491	0.38804	0.17797	0.87932	-0.0592	0.0182	-0.0073	-0.0462	0.0165	0.9585
14.8403	12.2	733.0848	53.1606	-243.1936	-45.2678	732.15	0.97988	0.63442	-0.45804	0.34648	0.2513	0.76869	-0.0592	0.0182	-0.0073	-0.0462	0.0165	0.9585
14.8541	13.8081	739.0341	54.0398	-244.6163	-45.0831	734.6175	0.70541	0.3572	-0.49643	0.23812	0.3904	0.48875	-0.0592	0.0182	-0.0073	-0.0462	0.0165	0.9585
14.8679	15.1686	746.5727	55.5146	-246.366	-45.6178	739.0466	0.34388	-0.11775	-0.54127	0.045669	0.56999	-0.017391	-0.0592	0.0182	-0.0073	-0.0462	0.0165	0.9585
14.8816	16.3657	754.8816	57.3784	-248.212	-46.6457	744.5167	-0.031458	-0.84036	-0.60139	-0.24903	0.77086	-0.81964	-0.0592	0.0182	-0.0073	-0.0462	0.0165	0.9585
14.8954	17.5385	763.1145	59.4137	-249.9139	-47.9054	750.0904	-0.36104	-1.829	-0.67035	-0.65308	0.96274	-1.9497	-0.0592	0.0182	-0.0073	-0.0462	0.0165	0.9585
14.9092	18.8302	770.4759	61.4651	-251.2387	-49.1925	754.9054	-0.58065	-3.0762	-0.74018	-1.1619	1.1109	-3.4061	-0.0592	0.0182	-0.0073	-0.0462	0.0165	0.9585
14.923	20.3451	776.3207	63.3978	-251.9928	-50.3325	758.2775	-0.60788	-4.5075	-0.78159	-1.7422	1.1491	-5.1019	-0.0592	0.0182	-0.0073	-0.0462	0.0165	0.9585
14.9368	22.1377	780.1985	65.1481	-252.0399	-51.2376	759.7514	-0.34116	-5.9074	-0.75745	-2.3075	0.9923	-6.7771	-0.0592	0.0182	-0.0073	-0.0462	0.0165	0.9585
14.9506	24.1702	781.8134	66.6885	-251.2918	-51.8854	759.0602	0.34951	-6.8781	-0.60873	-2.698	0.52384	-7.9666	-0.0592	0.0182	-0.0073	-0.0462	0.0165	0.9585
14.9644	26.3423	781.0312	68.0642	-249.7131	-52.3461	756.1225	1.5862	-6.7984	-0.26997	-2.6624	-0.37934	-7.9453	-0.0592	0.0182	-0.0073	-0.0462	0.0165	0.9585
14.9781	28.5327	777.9269	69.3183	-247.3438	-52.6961	751.0525	3.4825	-4.784	0.33558	-1.8422	-1.8426	-5.6835	-0.0592	0.0182	-0.0073	-0.0462	0.0165	0.9585
14.9919	30.6154	772.7599	70.5124	-244.2901	-53.0344	744.1402	6.0979	0.30098	1.2712	0.22283	-3.9512	0.14114	-0.0592	0.0182	-0.0073	-0.0462	0.0165	0.9585
15.0057	32.5149	765.8277	71.6509	-240.678	-53.3962	735.6851	9.3427	9.7608	2.5746	4.0623	-6.7032	11.0474	-0.0592	0.0182	-0.0073	-0.0462	0.0165	0.9585
15.0195	34.1961	757.3191	72.6677	-236.6044	-53.7399	725.8735	12.9012	24.8696	4.2119	10.1946	-9.9245	28.5159	-0.0592	0.0182	-0.0073	-0.0462	0.0165	0.9585
15.0333	35.6435	747.2221	73.4024	-232.1061	-53.929	714.7003	16.1158	46.542	6.0336	18.9871	-13.1739	53.6165	-0.0592	0.0182	-0.0073	-0.0462	0.0165	0.9585
15.0471	36.8528	735.2044	73.6613	-227.1197	-53.7905	701.852	17.9307	74.8344	7.7443	30.4571	-15.6908	86.431	-0.0592	0.0182	-0.0073	-0.0462	0.0165	0.9585
15.0609	37.8106	720.618	73.2407	-221.4793	-53.1425	686.7185	16.9913	108.3407	8.9192	44.0295	-16.4476	125.3393	-0.0592	0.0182	-0.0073	-0.0462	0.0165	0.9585
15.0746	38.4971	702.6519	71.9542	-214.9657	-51.8206	668.5365	12.4734	144.0734	8.8607	58.4707	-14.3514	166.907	-0.0592	0.0182	-0.0073	-0.0462	0.0165	0.9585
15.0884	38.9097	680.6463	69.6969	-207.4001	-49.7277	646.6765	5.6135	178.7056	7.0812	72.389	-9.3772	207.2668	-0.0592	0.0182	-0.0073	-0.0462	0.0165	0.9585
15.1022	39.0898	654.352	66.4974	-198.7199	-46.8694	620.8841	-1.7422	209.2965	3.8539	84.5983	-2.6273	242.8462	-0.0592	0.0182	-0.0073	-0.0462	0.0165	0.9585
15.116	39.1188	623.8912	62.5362	-188.9655	-43.3792	591.2547	-8.318	234.7772	-0.34751	94.6831	4.8196	272.2414	-0.0592	0.0182	-0.0073	-0.0462	0.0165	0.9585
15.1298	39.0416	589.6678	57.9861	-178.2527	-39.397	558.1623	-13.75	256.6543	-4.8611	103.2689	12.0795	297.146	-0.0592	0.0182	-0.0073	-0.0462	0.0165	0.9585
15.1436	38.8755	552.2375	53.0015	-166.7304	-35.0564	522.1378	-18.1872	277.9105	-9.2498	111.5703	18.7357	321.0258	-0.0592	0.0182	-0.0073	-0.0462	0.0165	0.9585
15.1574	38.5717	512.1737	47.6358	-154.547	-30.4218	483.7402	-21.8326	301.4826	-13.227	120.7787	24.5858	347.2524	-0.0592	0.0182	-0.0073	-0.0462	0.0165	0.9585
